<svg xmlns="http://www.w3.org/2000/svg" version="1.1" xmlns:xlink="http://www.w3.org/1999/xlink" xmlns:svgjs="http://svgjs.dev/svgjs" width="2000" height="2000" viewBox="0 0 2000 2000"><g transform="matrix(1,0,0,1,-0.28443113772425477,-0.28443113772459583)"><svg viewBox="0 0 334 334" data-background-color="#f0eadc" preserveAspectRatio="xMidYMid meet" height="2000" width="2000" xmlns="http://www.w3.org/2000/svg" xmlns:xlink="http://www.w3.org/1999/xlink"><g id="tight-bounds" transform="matrix(1,0,0,1,0.04749999999998522,0.04750000000001364)"><svg viewBox="0 0 333.90454557049503 333.90454557049503" height="333.90454557049503" width="333.90454557049503"><g><svg></svg></g><g><svg viewBox="0 0 333.90454557049503 333.90454557049503" height="333.90454557049503" width="333.90454557049503"><g><path d="M0 166.952c0-92.205 74.747-166.952 166.952-166.952 92.205 0 166.952 74.747 166.953 166.952 0 92.205-74.747 166.952-166.953 166.953-92.205 0-166.952-74.747-166.952-166.953zM166.952 316.63c82.665 0 149.677-67.013 149.678-149.678 0-82.665-67.013-149.677-149.678-149.677-82.665 0-149.677 67.013-149.677 149.677 0 82.665 67.013 149.677 149.677 149.678z" data-fill-palette-color="tertiary" fill="#2ea673" stroke="transparent"></path><ellipse rx="160.27418187383762" ry="160.27418187383762" cx="166.95227278524752" cy="166.95227278524752" fill="#2ea673" stroke="transparent" stroke-width="0" fill-opacity="1" data-fill-palette-color="tertiary"></ellipse></g><g transform="matrix(1,0,0,1,94.93223868046363,71.17305217166896)"><svg viewBox="0 0 144.04006820956778 191.55844122715712" height="191.55844122715712" width="144.04006820956778"><g><svg viewBox="0 0 144.04006820956778 191.55844122715712" height="191.55844122715712" width="144.04006820956778"><g><svg viewBox="0 0 144.04006820956778 191.55844122715712" height="191.55844122715712" width="144.04006820956778"><g><svg viewBox="0 0 144.04006820956778 191.55844122715712" height="191.55844122715712" width="144.04006820956778"><g id="textblocktransform"><svg viewBox="0 0 144.04006820956778 191.55844122715712" height="191.55844122715712" width="144.04006820956778" id="textblock"><g><svg viewBox="0 0 144.04006820956778 191.55844122715712" height="191.55844122715712" width="144.04006820956778"><g transform="matrix(1,0,0,1,0,0)"><svg width="144.04006820956778" viewBox="2.49 -37.11 28.42 37.79" height="191.55844122715712" data-palette-color="#f0eadc"><path d="M2.49-32.62L2.49-32.62Q2.49-36.6 3.32-37.06L3.32-37.06Q3.56-37.01 4-37.01L4-37.01 4.79-37.01Q5.54-37.01 7.28-37.06 9.01-37.11 9.91-37.11L9.91-37.11Q13.38-37.11 15.52-36.83 17.65-36.55 17.92-35.79L17.92-35.79 17.63-10.6 18.16-10.6Q20.12-10.69 20.9-10.68 21.68-10.67 23.77-10.58 25.85-10.5 27.78-10.5L27.78-10.5Q29.37-10.5 30.14-10.31 30.91-10.13 30.91-9.57L30.91-9.57 30.91-0.2Q30.59 0.68 20.02 0.68L20.02 0.68 3.13 0.68Q2.54-0.17 2.54-2.05L2.54-2.05 2.54-8.98Q2.54-12.04 2.59-18.02 2.64-24 2.64-27.05L2.64-27.05Q2.64-27.61 2.56-29.54 2.49-31.47 2.49-32.62Z" opacity="1" transform="matrix(1,0,0,1,0,0)" fill="#f0eadc" class="wordmark-text-0" data-fill-palette-color="quaternary" id="text-0"></path></svg></g></svg></g></svg></g></svg></g><g></g></svg></g></svg></g></svg></g></svg></g><defs></defs></svg><rect width="333.90454557049503" height="333.90454557049503" fill="none" stroke="none" visibility="hidden"></rect></g></svg></g></svg>